<svg width="66" height="66" viewBox="0 0 66 66" fill="none" xmlns="http://www.w3.org/2000/svg">
<path d="M53.7505 14.1939L40.3926 31.3459C39.7554 32.164 40.2188 33.3662 41.2402 33.5451L50.7154 35.2042C51.9717 35.4242 52.2776 37.0876 51.1817 37.7401L19.5095 56.5985C18.3875 57.2666 17.0535 56.1411 17.5231 54.9227L24.2752 37.4011C24.5867 36.5929 24.0824 35.7016 23.2294 35.5522L12.7168 33.7114C11.8188 33.5542 11.3197 32.5827 11.7148 31.7611L23.2301 7.81587C23.497 7.26106 24.1 6.95121 24.7065 7.0574L52.9028 11.9947C53.9243 12.1735 54.3877 13.3757 53.7505 14.1939Z" fill="#63EAD1"/>
<path fill-rule="evenodd" clip-rule="evenodd" d="M54.8357 15.0388L41.4778 32.1907L50.953 33.8499C53.4655 34.2898 54.0772 37.6166 51.8856 38.9215L20.2134 57.78C17.9694 59.1161 15.3013 56.8652 16.2404 54.4282L22.9926 36.9066L12.48 35.0659C10.6841 34.7514 9.68582 32.8083 10.476 31.1652L21.9914 7.21998C22.525 6.11034 23.7312 5.49065 24.944 5.70302L53.1404 10.6403C55.1833 10.998 56.1101 13.4024 54.8357 15.0388ZM40.393 31.3459L53.7509 14.1939C54.3881 13.3757 53.9247 12.1735 52.9032 11.9947L24.7068 7.05741C24.1004 6.95123 23.4973 7.26107 23.2305 7.81589L11.7151 31.7612C11.32 32.5827 11.8192 33.5542 12.7171 33.7115L23.2297 35.5523C24.0828 35.7016 24.587 36.593 24.2756 37.4011L17.5234 54.9227C17.0539 56.1412 18.3879 57.2666 19.5099 56.5985L51.1821 37.7401C52.2779 37.0876 51.9721 35.4242 50.7158 35.2043L41.2406 33.5451C40.2191 33.3663 39.7558 32.1641 40.393 31.3459Z" fill="#02476F"/>
<path d="M23.2305 7.81604C23.4973 7.26122 24.1004 6.95138 24.7068 7.05756L35.9372 9.02404L27.1996 27.586L14.8281 25.288L23.2305 7.81604Z" fill="#5AD9C2"/>
<path fill-rule="evenodd" clip-rule="evenodd" d="M25.7811 37.1321C26.1332 37.2744 26.3033 37.6751 26.1611 38.0271L19.2001 55.2576C19.0579 55.6096 18.6572 55.7797 18.3052 55.6375C17.9531 55.4953 17.783 55.0946 17.9252 54.7425L24.8862 37.5121C25.0284 37.16 25.4291 36.9899 25.7811 37.1321Z" fill="#63EAD1"/>
<path d="M51.182 37.7401L19.5098 56.5985L44.6964 35.4508L44.0003 34.0527L50.7157 35.2042C51.9719 35.4242 52.2778 37.0876 51.182 37.7401Z" fill="#4AACC2"/>
<path d="M53.7505 14.1938L40.3926 31.3458C39.758 32.1607 40.215 33.3565 41.2279 33.5428L34.375 32.3125L47.4375 11.0376L52.9028 11.9946C53.9243 12.1735 54.3877 13.3757 53.7505 14.1938Z" fill="#4AACC2"/>
<path fill-rule="evenodd" clip-rule="evenodd" d="M20.399 57.6474C20.3408 57.6967 20.2787 57.7411 20.2132 57.7801C17.9692 59.1162 15.3011 56.8653 16.2402 54.4283L22.9924 36.9068L12.4798 35.066C10.6839 34.7515 9.68562 32.8084 10.4758 31.1654L21.9912 7.22009C22.5248 6.11046 23.731 5.49077 24.9438 5.70314L45.6813 9.33433C47.5939 9.66924 48.5665 11.8273 47.5505 13.482L36.5986 31.3192L43.1031 32.5019C45.388 32.9173 46.161 35.803 44.3896 37.305L20.399 57.6474ZM42.8571 33.8547C43.9996 34.0624 44.3861 35.5052 43.5004 36.2562L19.5097 56.5986C18.3877 57.2667 17.0537 56.1413 17.5232 54.9228L24.2754 37.4012C24.5868 36.5931 24.0826 35.7017 23.2295 35.5524L12.7169 33.7116C11.819 33.5544 11.3199 32.5828 11.7149 31.7613L23.2303 7.81601C23.4971 7.26119 24.1002 6.95135 24.7066 7.05753L45.4441 10.6887C46.4005 10.8562 46.8867 11.9352 46.3787 12.7626L34.3752 32.3125L42.8571 33.8547Z" fill="#02476F"/>
<path d="M34.375 32.3127L46.3785 12.7627C46.8865 11.9354 46.4002 10.8564 45.4439 10.6889L42.9688 10.2555L31.9688 31.6251L34.375 32.3127Z" fill="#30CFC6"/>
<path fill-rule="evenodd" clip-rule="evenodd" d="M24.3626 8.31891C24.7043 8.48456 24.8469 8.89582 24.6813 9.23747L13.6813 31.925C13.5156 32.2666 13.1044 32.4093 12.7627 32.2437C12.4211 32.078 12.2784 31.6668 12.444 31.3251L23.444 8.6376C23.6097 8.29594 24.0209 8.15326 24.3626 8.31891Z" fill="#A8FFEF"/>
<path fill-rule="evenodd" clip-rule="evenodd" d="M16.4563 24.6256C16.798 24.7912 16.9407 25.2025 16.775 25.5441L13.6813 31.925C13.5156 32.2666 13.1044 32.4093 12.7627 32.2437C12.4211 32.078 12.2784 31.6668 12.444 31.3251L15.5378 24.9442C15.7034 24.6026 16.1147 24.4599 16.4563 24.6256Z" fill="#FCE8FF"/>
<path d="M45.6732 22.2872C45.5342 22.5954 45.2111 22.7504 44.9515 22.6334C44.6919 22.5163 44.5941 22.1715 44.7331 21.8632C44.8722 21.555 45.1953 21.4 45.4549 21.517C45.7145 21.6341 45.8122 21.9789 45.6732 22.2872Z" fill="#1D9E97"/>
<path d="M43.7484 25.8932C43.6094 26.2015 43.2863 26.3565 43.0267 26.2394C42.7671 26.1224 42.6693 25.7776 42.8083 25.4693C42.9474 25.161 43.2705 25.006 43.5301 25.1231C43.7897 25.2402 43.8874 25.585 43.7484 25.8932Z" fill="#1D9E97"/>
<path d="M44.1381 23.7659C43.9484 24.1866 43.5074 24.3981 43.1532 24.2383C42.7989 24.0786 42.6655 23.608 42.8552 23.1874C43.0449 22.7667 43.4859 22.5552 43.8402 22.7149C44.1944 22.8747 44.3278 23.3452 44.1381 23.7659Z" fill="#1D9E97"/>
<path d="M48.2728 19.5588C48.1338 19.867 47.8107 20.022 47.5511 19.905C47.2915 19.7879 47.1937 19.4431 47.3328 19.1348C47.4718 18.8266 47.7949 18.6716 48.0545 18.7886C48.3141 18.9057 48.4119 19.2505 48.2728 19.5588Z" fill="#1D9E97"/>
<path d="M46.4906 20.0209C46.3911 20.2415 46.1599 20.3524 45.9742 20.2686C45.7884 20.1849 45.7184 19.9381 45.8179 19.7175C45.9174 19.4969 46.1486 19.386 46.3344 19.4698C46.5202 19.5536 46.5901 19.8003 46.4906 20.0209Z" fill="#1D9E97"/>
<path d="M47.1635 21.6759C47.064 21.8965 46.8328 22.0074 46.647 21.9237C46.4612 21.8399 46.3913 21.5931 46.4908 21.3726C46.5903 21.152 46.8215 21.0411 47.0072 21.1248C47.193 21.2086 47.263 21.4553 47.1635 21.6759Z" fill="#1D9E97"/>
<path d="M45.0614 24.5119C44.9619 24.7325 44.7307 24.8434 44.545 24.7596C44.3592 24.6758 44.2892 24.4291 44.3887 24.2085C44.4882 23.9879 44.7194 23.877 44.9052 23.9608C45.091 24.0445 45.1609 24.2913 45.0614 24.5119Z" fill="#1D9E97"/>
<path d="M41.7528 26.8506C41.6534 27.0712 41.4221 27.1821 41.2364 27.0983C41.0506 27.0146 40.9807 26.7678 41.0801 26.5472C41.1796 26.3267 41.4108 26.2157 41.5966 26.2995C41.7824 26.3833 41.8523 26.63 41.7528 26.8506Z" fill="#1D9E97"/>
<path d="M45.0614 20.324C44.9619 20.5446 44.7307 20.6555 44.545 20.5717C44.3592 20.488 44.2892 20.2412 44.3887 20.0206C44.4882 19.8 44.7194 19.6891 44.9052 19.7729C45.091 19.8567 45.1609 20.1034 45.0614 20.324Z" fill="#1D9E97"/>
<path d="M47.1635 16.8866C47.064 17.1072 46.8328 17.2181 46.647 17.1343C46.4612 17.0506 46.3913 16.8038 46.4908 16.5833C46.5903 16.3627 46.8215 16.2517 47.0072 16.3355C47.193 16.4193 47.263 16.666 47.1635 16.8866Z" fill="#1D9E97"/>
<path d="M49.8275 17.3162C49.7281 17.5368 49.4968 17.6477 49.3111 17.5639C49.1253 17.4801 49.0554 17.2334 49.1548 17.0128C49.2543 16.7922 49.4855 16.6813 49.6713 16.7651C49.8571 16.8489 49.927 17.0956 49.8275 17.3162Z" fill="#1D9E97"/>
<path fill-rule="evenodd" clip-rule="evenodd" d="M42.6661 34.842C42.9184 35.1257 42.8929 35.5603 42.6092 35.8126L29.4178 47.5431C29.1341 47.7954 28.6995 47.7699 28.4472 47.4862C28.1949 47.2024 28.2204 46.7679 28.5041 46.5156L41.6955 34.7851C41.9792 34.5328 42.4138 34.5582 42.6661 34.842Z" fill="#63EAD1"/>
<path fill-rule="evenodd" clip-rule="evenodd" d="M41.2156 10.4289C41.5547 10.5997 41.6912 11.013 41.5205 11.3522L32.1533 29.9576C31.9825 30.2968 31.5692 30.4333 31.2301 30.2625C30.8909 30.0918 30.7544 29.6784 30.9251 29.3393L40.2923 10.7338C40.4631 10.3947 40.8764 10.2582 41.2156 10.4289Z" fill="#63EAD1"/>
<path d="M37.5655 35.4586C37.4646 35.8246 37.1232 36.0498 36.8029 35.9615C36.4826 35.8732 36.3048 35.5049 36.4057 35.1389C36.5066 34.7728 36.848 34.5477 37.1683 34.6359C37.4886 34.7242 37.6664 35.0925 37.5655 35.4586Z" fill="#E8FFFB"/>
<path d="M35.4356 38.039C35.367 38.2879 35.1347 38.4411 34.9169 38.381C34.6991 38.321 34.5781 38.0705 34.6467 37.8215C34.7154 37.5725 34.9476 37.4194 35.1654 37.4795C35.3833 37.5395 35.5042 37.79 35.4356 38.039Z" fill="#E8FFFB"/>
<path d="M32.709 39.3179C32.6404 39.5669 32.4082 39.72 32.1903 39.6599C31.9725 39.5999 31.8515 39.3494 31.9202 39.1004C31.9888 38.8515 32.221 38.6983 32.4389 38.7584C32.6567 38.8184 32.7777 39.0689 32.709 39.3179Z" fill="#E8FFFB"/>
<path d="M35.4356 35.4294C35.367 35.6783 35.1347 35.8314 34.9169 35.7714C34.6991 35.7113 34.5781 35.4608 34.6467 35.2119C34.7154 34.9629 34.9476 34.8098 35.1654 34.8698C35.3833 34.9299 35.5042 35.1804 35.4356 35.4294Z" fill="#E8FFFB"/>
<path d="M39.9903 34.9268C39.9216 35.1757 39.6894 35.3289 39.4716 35.2688C39.2537 35.2088 39.1328 34.9583 39.2014 34.7093C39.27 34.4604 39.5023 34.3072 39.7201 34.3673C39.938 34.4273 40.0589 34.6778 39.9903 34.9268Z" fill="#E8FFFB"/>
<path d="M38.0246 36.7991C37.9765 36.9735 37.8139 37.0808 37.6613 37.0387C37.5087 36.9966 37.424 36.8212 37.472 36.6468C37.5201 36.4724 37.6828 36.3652 37.8354 36.4072C37.9879 36.4493 38.0727 36.6247 38.0246 36.7991Z" fill="#E8FFFB"/>
<path d="M33.964 40.2366C33.916 40.411 33.7533 40.5183 33.6007 40.4762C33.4481 40.4341 33.3634 40.2587 33.4115 40.0843C33.4596 39.9099 33.6222 39.8027 33.7748 39.8447C33.9274 39.8868 34.0121 40.0622 33.964 40.2366Z" fill="#E8FFFB"/>
<path d="M34.6091 33.8608C34.561 34.0351 34.3983 34.1424 34.2457 34.1003C34.0932 34.0583 34.0084 33.8828 34.0565 33.7084C34.1046 33.5341 34.2672 33.4268 34.4198 33.4689C34.5724 33.5109 34.6571 33.6864 34.6091 33.8608Z" fill="#E8FFFB"/>
<path d="M38.5773 34.3349C38.5292 34.5093 38.3666 34.6165 38.214 34.5745C38.0614 34.5324 37.9767 34.3569 38.0248 34.1826C38.0728 34.0082 38.2355 33.9009 38.3881 33.943C38.5407 33.985 38.6254 34.1605 38.5773 34.3349Z" fill="#E8FFFB"/>
<path d="M36.8625 37.3437C36.8144 37.518 36.6517 37.6253 36.4992 37.5832C36.3466 37.5412 36.2619 37.3657 36.3099 37.1913C36.358 37.017 36.5207 36.9097 36.6732 36.9518C36.8258 36.9938 36.9105 37.1693 36.8625 37.3437Z" fill="#E8FFFB"/>
<path d="M33.964 35.8455C33.916 36.0199 33.7533 36.1271 33.6007 36.0851C33.4481 36.043 33.3634 35.8676 33.4115 35.6932C33.4596 35.5188 33.6222 35.4115 33.7748 35.4536C33.9274 35.4957 34.0121 35.6711 33.964 35.8455Z" fill="#E8FFFB"/>
<path d="M34.4352 36.9516C34.3872 37.126 34.2245 37.2332 34.0719 37.1912C33.9193 37.1491 33.8346 36.9736 33.8827 36.7993C33.9308 36.6249 34.0934 36.5176 34.246 36.5597C34.3986 36.6017 34.4833 36.7772 34.4352 36.9516Z" fill="#E8FFFB"/>
<path d="M31.6266 42.0219C31.5786 42.1963 31.4159 42.3035 31.2633 42.2615C31.1107 42.2194 31.026 42.0439 31.0741 41.8696C31.1222 41.6952 31.2848 41.5879 31.4374 41.63C31.59 41.6721 31.6747 41.8475 31.6266 42.0219Z" fill="#E8FFFB"/>
</svg>
